<?xml version="1.0" standalone="no"?>
<!DOCTYPE svg PUBLIC "-//W3C//DTD SVG 20010904//EN"
 "http://www.w3.org/TR/2001/REC-SVG-20010904/DTD/svg10.dtd">
<svg version="1.0" xmlns="http://www.w3.org/2000/svg"
 width="512.000000pt" height="512.000000pt" viewBox="0 0 512.000000 512.000000"
 preserveAspectRatio="xMidYMid meet">
<metadata>
Created by potrace 1.14, written by Peter Selinger 2001-2017
</metadata>
<g transform="translate(0.000000,512.000000) scale(0.100000,-0.100000)"
fill="#000000" stroke="none">
<path d="M260 5111 c-93 -29 -177 -107 -206 -194 -17 -49 -18 -186 -19 -2337
0 -1257 3 -2307 8 -2335 15 -90 87 -180 177 -223 32 -16 209 -17 2322 -20
l2287 -2 57 21 c98 37 169 121 191 224 5 22 8 1071 8 2330 -1 2165 -2 2293
-19 2342 -21 62 -91 140 -156 174 l-45 24 -2290 2 c-1259 1 -2301 -2 -2315 -6z
m2267 -310 l32 -1 0 -555 0 -555 -565 0 -564 0 0 -564 0 -565 563 0 562 1 2
-524 c1 -287 3 -542 3 -564 l0 -42 563 2 562 1 2 563 2 562 -52 0 c-29 1 -283
1 -564 1 -389 0 -513 3 -514 12 -3 38 -4 1094 -1 1105 3 9 126 12 568 12 l564
0 0 -564 0 -565 493 0 c270 0 513 0 538 -1 l45 0 0 -564 0 -564 -510 -1 c-281
0 -523 0 -538 -1 l-28 0 0 -555 0 -555 -27 -1 c-16 0 -269 0 -563 -1 l-535 0
-2 552 c-1 304 -4 555 -7 557 -3 4 -896 6 -1098 3 l-26 0 0 -550 c0 -303 -2
-553 -5 -556 -4 -5 -897 -8 -1048 -5 l-25 1 0 549 c1 302 4 552 8 556 3 3 245
7 537 7 l531 0 -2 565 -3 564 -536 0 -535 0 0 564 0 565 538 0 538 0 0 554 0
555 23 3 c17 2 947 1 1074 -1z m2224 0 c14 -1 15 -59 15 -556 l1 -555 -539 0
c-506 0 -538 1 -538 18 -1 18 -1 1032 0 1069 0 15 7 23 23 25 17 2 966 1 1038
-1z"/>
</g>
</svg>
